<svg width="522.7" height="183.03" viewBox="0 0 522.7 183.03" id="a" xmlns="http://www.w3.org/2000/svg"><g><g><path fill="#a5c4e0" d="M67.05,164.85l-7.24-13.97c-2.13-2.46-4.34-4.86-6.64-7.16-1.25-1.25-2.55-2.46-3.85-3.67-1.38-1.27-2.78-2.5-4.21-3.71-7.16-6.07-14.96-11.42-23.29-15.91-3.71-2-7.52-3.83-11.42-5.47,9.53,21.17,24.38,39.41,42.85,53.05,6.08,4.29,12.56,8.04,19.36,11.22,.04,.02,.08,.04,.13,.06h.02c.78,.37,1.57,.72,2.36,1.07l-8.05-15.51Z"></path><path fill="#fff" d="M77.34,181.63h.73c-.31-.13-.62-.26-.93-.39l.2,.39Z"></path></g><g><path fill="none" d="M124.21,132.94c.16-.12,.31-.25,.47-.37-.16,.12-.31,.25-.47,.37Z"></path><polygon fill="none" points="87.77 181.63 87.97 181.24 94.85 167.97 87.97 181.24 87.77 181.63"></polygon><path fill="none" d="M118.45,137.7c-.89,.78-1.78,1.56-2.65,2.36,1.37-1.27,2.78-2.5,4.21-3.71-.52,.44-1.04,.9-1.56,1.35Z"></path><path fill="none" d="M82.5,124.78v0Z"></path><polygon fill="none" points="56.07 143.66 59.81 150.88 11.63 57.97 56.07 143.66"></polygon><polygon fill="none" points="122.78 75.67 102.75 111.8 122.78 75.67 122.81 75.61 122.78 75.67"></polygon><path fill="#a5c4e0" d="M124.21,132.94c-1.42,1.11-2.82,2.24-4.2,3.4h0c-1.43,1.21-2.83,2.44-4.21,3.71-1.3,1.2-2.6,2.41-3.85,3.67-2.3,2.3-4.51,4.69-6.64,7.16l-7.24,13.97-8.05,15.51c.79-.35,1.58-.7,2.36-1.06h.02s.08-.05,.13-.07c6.8-3.18,13.28-6.94,19.36-11.22,18.47-13.63,33.32-31.88,42.85-53.05-3.91,1.65-7.72,3.47-11.42,5.47-4.92,2.65-9.66,5.62-14.19,8.84-1.5,1.07-2.98,2.17-4.43,3.3-.16,.12-.31,.25-.47,.37Z"></path><path fill="#fff" d="M87.04,181.63h.73l.2-.39c-.31,.13-.62,.26-.93,.39Z"></path><path fill="#014874" d="M78.07,181.63h-.73l-.2-.39-6.88-13.26-6.14-11.85L13.72,58.94v-.02c-.36-.17-.71-.34-1.07-.51-.35-.17-.7-.33-1.05-.49l.03,.05,48.18,92.91,7.24,13.97,8.05,15.51,1.19,2.29,.62,.38h5.59v-1.41h-4.43Z"></path><path fill="#014874" d="M11.63,57.97c-3.77-1.72-6.21-2.71-6.69-3.06-3.88-2.82-3.4-4.69-4.37-.47-.15,.66-.26,1.37-.33,2.08,1.21,28.42,14.65,54.03,35.76,72.75,3.13,2.23,6.17,4.59,9.1,7.07,.53,.45,1.04,.9,1.56,1.35,.89,.78,1.78,1.56,2.65,2.36,1.3,1.2,2.6,2.41,3.85,3.67,2.3,2.3,4.51,4.69,6.64,7.16l-3.74-7.22L11.63,57.97Z"></path><g><path fill="#014874" d="M121.8,76.38c-4.66,3.42-9.4,7.3-14.02,11.67-2.58,2.44-5.12,5.03-7.58,7.79-5.88,7.64-11.46,16.53-16.4,26.92-.4,.84-.8,1.69-1.19,2.55l-.1-.5v.5c-.41-.86-.8-1.71-1.2-2.55-4.94-10.39-10.53-19.27-16.4-26.92-2.46-2.75-5-5.35-7.58-7.79-4.61-4.37-9.36-8.25-14.02-11.67-.35-.27-.69-.55-1.04-.82l.06,.11,20.03,36.13,20.03,36.13h.1v-.38l.11,.38h.1l20.03-36.13,20.03-36.13,.03-.06,.03-.06c-.35,.28-.7,.55-1.04,.82Z"></path><polygon fill="#014874" points="62.36 111.8 82.39 147.94 82.5 147.94 82.5 147.94 82.39 147.94 62.36 111.8"></polygon></g><polygon fill="#014874" points="122.84 75.56 122.84 75.56 122.81 75.61 122.84 75.56"></polygon><polygon fill="#014874" points="102.75 111.8 82.72 147.94 82.61 147.94 82.61 147.94 82.72 147.94 102.75 111.8"></polygon><path fill="#014874" d="M164.88,56.52c-.08-.71-.18-1.41-.33-2.08-.97-4.22-.49-2.35-4.37,.47-.48,.35-2.92,1.34-6.69,3.06l.03-.05c-.35,.16-.7,.33-1.05,.49-.35,.17-.71,.34-1.06,.51h0v.02l-25.2,48.59-25.2,48.59-6.14,11.85-6.88,13.26-.2,.39h-5.16v1.41h5.59l.62-.38,1.19-2.29,8.05-15.51,7.24-13.97c2.13-2.46,4.34-4.86,6.64-7.16,1.25-1.25,2.55-2.46,3.85-3.67,.87-.8,1.76-1.59,2.65-2.36,.52-.45,1.04-.9,1.56-1.35h0c1.37-1.17,2.78-2.3,4.2-3.41,.16-.12,.31-.25,.47-.37,1.45-1.13,2.93-2.23,4.43-3.3h0c21.11-18.73,34.55-44.34,35.76-72.76Z"></path><path fill="#014874" d="M129.11,129.28c-1.5,1.07-2.98,2.17-4.43,3.3,1.46-1.13,2.93-2.23,4.43-3.3Z"></path><path fill="#014874" d="M124.21,132.94c-1.42,1.11-2.82,2.24-4.2,3.4h0c1.37-1.16,2.78-2.29,4.2-3.4Z"></path><polygon fill="#014874" points="101 156.13 101 156.13 126.2 107.53 101 156.13 101 156.13"></polygon><polygon fill="#014874" points="94.85 167.97 101 156.13 101 156.13 94.85 167.97"></polygon><path fill="#4d748e" d="M82.37,125.04l.14-.25v0l.2,.31c.36-.79,.73-1.57,1.1-2.35,4.94-10.39,10.53-19.27,16.4-26.92,7.73-10.06,15.96-17.96,23.87-24.3,20.6-16.51,39.01-22.36,40.66-27.89,1.6-5.33-2.25-17.76-5.87-27.52-.89-2.93-3.76-12.66-4.45-15.19-.1-.37-.47-.94-.94-.47-.42,.42-2.09,1.86-2.82,2.35-.98,.65-2.96,1.64-4.64,2.42-4.94,1.97-15.94,7.17-30.09,19.63-10.24,9.02-18.83,22.35-24.73,33.08-3.26,5.49-6.13,11.23-8.59,17.19l-.11,.37v-.37c-2.46-5.96-5.34-11.7-8.59-17.19-5.89-10.73-14.49-24.05-24.73-33.08C35.03,12.41,24.03,7.21,19.09,5.25c-1.68-.78-3.66-1.77-4.64-2.42-.73-.48-2.39-1.92-2.82-2.35-.47-.47-.84,.1-.94,.47-.69,2.52-3.56,12.25-4.45,15.19C2.62,25.89-1.23,38.32,.37,43.65c1.66,5.52,20.06,11.38,40.66,27.89,7.91,6.34,16.14,14.24,23.87,24.3,5.88,7.64,11.46,16.53,16.4,26.92,.36,.75,.71,1.51,1.06,2.28Z"></path><path fill="#4d748e" d="M82.51,124.79l-.14,.25c-.35-.77-.71-1.53-1.06-2.28,.4,.84,.8,1.69,1.19,2.55v-.5l.11,.5c.39-.86,.79-1.71,1.19-2.55-.37,.77-.73,1.56-1.1,2.35l-.2-.31Z"></path></g></g><path fill="#fff" d="M150.75,59.24c-2.07,1.01-4.08,2-6.05,2.99-6.3,3.26-13.97,7.68-21.92,13.43l-20.03,36.13-20.03,36.13h-.1v.47l-.11-.24v-.23h-.1l-20.03-36.13-20.03-36.13c-7.96-5.75-15.62-10.17-21.92-13.43-1.97-.99-2.02-1.15-4.08-2.16-.22-.1-2.4-1.04-2.61-1.14l50.4,97.19,6.14,11.85,6.88,13.26c.31,.13,.62,.26,.93,.39h4.43l.11-.45v.45h4.43c.31-.13,.62-.26,.93-.39l6.88-13.26,6.14-11.85h0l25.2-48.59,25.2-48.59c-.21,.1-.43,.2-.65,.31Z"></path><g><g><path fill="#0e4376" d="M291.86,109.7h0v-13.06h-2.94c-9.24,0-16.7,2.97-22.03,8.68v-7.63h-13.36v80.64h0v.3h13.35v-.3h0v-44.21c0-22.38,16.86-24.12,22.03-24.12h2.94v-.3Z"></path><path fill="#0e4376" d="M202.06,96.05c-24.14,0-41.67,17.65-41.67,41.97,0,.05,0,.1,0,.15,0,.05,0,.1,0,.15,0,24.32,17.77,41.96,42.26,41.96,15.3,0,28.09-6.68,35.11-18.32l1.53-2.54-.13-.08,.13-.22-11.75-6.94-1.46,2.67c-4.14,7.56-12.85,12.08-23.29,12.08-14.35,0-25.27-8.61-28.19-21.78h67.16v-.3h0v-2.64c0-.53,.04-1.07,.07-1.61,.04-.66,.08-1.32,.08-1.98,0-.05,0-.11,0-.16,0-.05,0-.09,0-.14,0-20.49-13.97-42.26-39.87-42.26Zm-27.51,35.59c2.67-13.44,13.34-22.23,27.51-22.23,11.09,0,22.88,6.91,25.74,22.23h-53.25Z"></path><path fill="#0e4376" d="M430.21,96.05c-23.7,0-42.26,18.43-42.26,41.97,0,.05,0,.1,0,.15,0,.05,0,.1,0,.15,0,23.53,18.57,41.96,42.26,41.96s42.12-18.43,42.12-41.96c0-.05,0-.09,0-.14,0-.05,0-.1,0-.16,0-23.53-18.5-41.97-42.12-41.97Zm0,70.87c-16.08,0-28.68-12.62-28.75-28.76,.08-16.14,12.68-28.75,28.75-28.75s28.53,12.62,28.61,28.77c-.08,16.14-12.61,28.75-28.61,28.75Z"></path><path fill="#0e4376" d="M333.85,96.05c-23.7,0-42.26,18.43-42.26,41.97,0,.05,0,.1,0,.14,0,.05,0,.1,0,.15,0,23.53,18.57,41.96,42.26,41.96,8.84,0,16.97-2.59,23.68-7.06l4.84,7.06h13.6l-.2-.3h.2l-9.88-14.4c6.18-7.29,9.88-16.76,9.88-27.26,0-.05,0-.1,0-.15,0-.05,0-.1,0-.15,0-23.53-18.5-41.97-42.12-41.97Zm28.59,42.9c0,.25-.02,.5-.03,.75-.28,5.2-1.87,9.99-4.43,14.05l-9.24-13.48h-13.6l.2,.3h-.21l14.76,21.53c-4.55,3.06-10.05,4.83-16.04,4.83-16.08,0-28.68-12.62-28.75-28.76,.08-16.14,12.68-28.76,28.75-28.76s28.53,12.62,28.61,28.77c0,.26-.01,.52-.02,.77Z"></path><path fill="#0e4376" d="M519.76,96.64c-9.24,0-16.7,2.97-22.03,8.68v-7.63h-13.36v.3h0v80.64h13.35v-.3h0v-44.22c0-22.37,16.86-24.11,22.03-24.11h2.94v-13.36h-2.94Z"></path></g><g><g><path fill="#ebad78" d="M67.05,164.55l-7.24-13.97c-2.13-2.46-4.34-4.86-6.64-7.16-1.25-1.25-2.55-2.46-3.85-3.67-1.38-1.27-2.78-2.5-4.21-3.71-7.16-6.07-14.96-11.42-23.29-15.91-3.71-2-7.52-3.83-11.42-5.47,9.53,21.17,24.38,39.41,42.85,53.05,6.08,4.29,12.56,8.04,19.36,11.22,.04,.02,.08,.04,.13,.06h.02c.78,.37,1.57,.72,2.36,1.07l-8.05-15.51Z"></path><path fill="#fff" d="M77.34,181.33h.73c-.31-.13-.62-.26-.93-.39l.2,.39Z"></path></g><g><path fill="none" d="M124.21,132.64c.16-.12,.31-.25,.47-.37-.16,.12-.31,.25-.47,.37Z"></path><polygon fill="none" points="87.77 181.33 87.97 180.94 94.85 167.67 87.97 180.94 87.77 181.33"></polygon><path fill="none" d="M118.45,137.4c-.89,.78-1.78,1.56-2.65,2.36,1.37-1.27,2.78-2.5,4.21-3.71-.52,.44-1.04,.9-1.56,1.35Z"></path><path fill="none" d="M82.5,124.48v0Z"></path><polygon fill="none" points="56.07 143.37 59.81 150.58 11.63 57.67 56.07 143.37"></polygon><polygon fill="none" points="122.78 75.37 102.75 111.51 122.78 75.37 122.81 75.32 122.78 75.37"></polygon><path fill="#ebad78" d="M124.21,132.64c-1.42,1.11-2.82,2.24-4.2,3.4h0c-1.43,1.21-2.83,2.44-4.21,3.71-1.3,1.2-2.6,2.41-3.85,3.67-2.3,2.3-4.51,4.69-6.64,7.16l-7.24,13.97-8.05,15.51c.79-.35,1.58-.7,2.36-1.06h.02s.08-.05,.13-.07c6.8-3.18,13.28-6.94,19.36-11.22,18.47-13.63,33.32-31.88,42.85-53.05-3.91,1.65-7.72,3.47-11.42,5.47-4.92,2.65-9.66,5.62-14.19,8.84-1.5,1.07-2.98,2.17-4.43,3.3-.16,.12-.31,.25-.47,.37Z"></path><path fill="#fff" d="M87.04,181.33h.73l.2-.39c-.31,.13-.62,.26-.93,.39Z"></path><path fill="#cc5e16" d="M78.07,181.33h-.73l-.2-.39-6.88-13.26-6.14-11.85L13.72,58.64v-.02c-.36-.17-.71-.34-1.07-.51-.35-.17-.7-.33-1.05-.49l.03,.05,48.18,92.91,7.24,13.97,8.05,15.51,1.19,2.29,.62,.38h5.59v-1.41h-4.43Z"></path><path fill="#cc5e16" d="M11.63,57.67c-3.77-1.72-6.21-2.71-6.69-3.06-3.88-2.82-3.4-4.69-4.37-.47-.15,.66-.26,1.37-.33,2.08,1.21,28.42,14.65,54.03,35.76,72.75,3.13,2.23,6.17,4.59,9.1,7.07,.53,.45,1.04,.9,1.56,1.35,.89,.78,1.78,1.56,2.65,2.36,1.3,1.2,2.6,2.41,3.85,3.67,2.3,2.3,4.51,4.69,6.64,7.16l-3.74-7.22L11.63,57.67Z"></path><g><path fill="#cc5e16" d="M121.8,76.08c-4.66,3.42-9.4,7.3-14.02,11.67-2.58,2.44-5.12,5.03-7.58,7.79-5.88,7.64-11.46,16.53-16.4,26.92-.4,.84-.8,1.69-1.19,2.55l-.1-.5v.5c-.41-.86-.8-1.71-1.2-2.55-4.94-10.39-10.53-19.27-16.4-26.92-2.46-2.75-5-5.35-7.58-7.79-4.61-4.37-9.36-8.25-14.02-11.67-.35-.27-.69-.55-1.04-.82l.06,.11,20.03,36.13,20.03,36.13h.1v-.38l.11,.38h.1l20.03-36.13,20.03-36.13,.03-.06,.03-.06c-.35,.28-.7,.55-1.04,.82Z"></path><polygon fill="#a5c4e0" points="62.36 111.51 82.39 147.64 82.5 147.64 82.5 147.64 82.39 147.64 62.36 111.51"></polygon></g><polygon fill="#a5c4e0" points="122.84 75.26 122.84 75.26 122.81 75.32 122.84 75.26"></polygon><polygon fill="#a5c4e0" points="102.75 111.51 82.72 147.64 82.61 147.64 82.61 147.64 82.72 147.64 102.75 111.51"></polygon><path fill="#cc5e16" d="M164.88,56.23c-.08-.71-.18-1.41-.33-2.08-.97-4.22-.49-2.35-4.37,.47-.48,.35-2.92,1.34-6.69,3.06l.03-.05c-.35,.16-.7,.33-1.05,.49-.35,.17-.71,.34-1.06,.51h0v.02l-25.2,48.59-25.2,48.59-6.14,11.85-6.88,13.26-.2,.39h-5.16v1.41h5.59l.62-.38,1.19-2.29,8.05-15.51,7.24-13.97c2.13-2.46,4.34-4.86,6.64-7.16,1.25-1.25,2.55-2.46,3.85-3.67,.87-.8,1.76-1.59,2.65-2.36,.52-.45,1.04-.9,1.56-1.35h0c1.37-1.17,2.78-2.3,4.2-3.41,.16-.12,.31-.25,.47-.37,1.45-1.13,2.93-2.23,4.43-3.3h0c21.11-18.73,34.55-44.34,35.76-72.76Z"></path><path fill="#a5c4e0" d="M129.11,128.98c-1.5,1.07-2.98,2.17-4.43,3.3,1.46-1.13,2.93-2.23,4.43-3.3Z"></path><path fill="#a5c4e0" d="M124.21,132.64c-1.42,1.11-2.82,2.24-4.2,3.4h0c1.37-1.16,2.78-2.29,4.2-3.4Z"></path><polygon fill="#a5c4e0" points="101 155.83 101 155.83 126.2 107.23 101 155.83 101 155.83"></polygon><polygon fill="#a5c4e0" points="94.85 167.67 101 155.83 101 155.83 94.85 167.67"></polygon><path fill="#4d748e" d="M82.51,124.49l-.14,.25c-.35-.77-.71-1.53-1.06-2.28,.4,.84,.8,1.69,1.19,2.55v-.5l.11,.5c.39-.86,.79-1.71,1.19-2.55-.37,.77-.73,1.56-1.1,2.35l-.2-.31Z"></path><path fill="#f07f11" d="M82.37,124.74l.14-.25v0l.2,.31c.36-.79,.73-1.57,1.1-2.35,4.94-10.39,10.53-19.27,16.4-26.92,7.73-10.06,15.96-17.96,23.87-24.3,20.6-16.51,39.01-22.36,40.66-27.89,1.6-5.33-2.25-17.76-5.87-27.52-.89-2.93-3.76-12.66-4.45-15.19-.1-.37-.47-.94-.94-.47-.42,.42-2.09,1.86-2.82,2.35-.98,.65-2.96,1.64-4.64,2.42-4.94,1.97-15.94,7.17-30.09,19.63-10.24,9.02-18.83,22.35-24.73,33.08-3.26,5.49-6.13,11.23-8.59,17.19l-.11,.37v-.37c-2.46-5.96-5.34-11.7-8.59-17.19-5.89-10.73-14.49-24.05-24.73-33.08C35.03,12.11,24.03,6.91,19.09,4.95c-1.68-.78-3.66-1.77-4.64-2.42-.73-.48-2.39-1.92-2.82-2.35-.47-.47-.84,.1-.94,.47-.69,2.52-3.56,12.25-4.45,15.19C2.62,25.59-1.23,38.02,.37,43.35c1.66,5.52,20.06,11.38,40.66,27.89,7.91,6.34,16.14,14.24,23.87,24.3,5.88,7.64,11.46,16.53,16.4,26.92,.36,.75,.71,1.51,1.06,2.28Z"></path></g></g><path fill="#fff" d="M150.75,58.95c-2.07,1.01-4.08,2-6.05,2.99-6.3,3.26-13.97,7.68-21.92,13.43l-20.03,36.13-20.03,36.13h-.1v.47l-.11-.24v-.23h-.1l-20.03-36.13-20.03-36.13c-7.96-5.75-15.62-10.17-21.92-13.43-1.97-.99-2.02-1.15-4.08-2.16-.22-.1-2.4-1.04-2.61-1.14l50.4,97.19,6.14,11.85,6.88,13.26c.31,.13,.62,.26,.93,.39h4.43l.11-.45v.45h4.43c.31-.13,.62-.26,.93-.39l6.88-13.26,6.14-11.85h0l25.2-48.59,25.2-48.59c-.21,.1-.43,.2-.65,.31Z"></path></g></svg>